0
SECTION
2
HEADER
9
$INSUNITS
70
4
9
$ACADVER
1
AC1014
9
$HANDSEED
5
FFFF
0
ENDSEC
0
SECTION
2
TABLES
0
TABLE
2
VPORT
5
8
100
AcDbSymbolTable
0
ENDTAB
0
TABLE
2
LTYPE
5
5
100
AcDbSymbolTable
0
LTYPE
5
14
100
AcDbSymbolTableRecord
100
AcDbLinetypeTableRecord
2
BYBLOCK
70
0
0
LTYPE
5
15
100
AcDbSymbolTableRecord
100
AcDbLinetypeTableRecord
2
BYLAYER
70
0
0
ENDTAB
0
TABLE
2
LAYER
5
2
100
AcDbSymbolTable
70
2
0
LAYER
5
50
100
AcDbSymbolTableRecord
100
AcDbLayerTableRecord
2
0
70
0
6
CONTINUOUS
0
ENDTAB
0
TABLE
2
STYLE
5
3
100
AcDbSymbolTable
70
1
0
STYLE
5
11
100
AcDbSymbolTableRecord
100
AcDbTextStyleTableRecord
2
STANDARD
70
0
0
ENDTAB
0
TABLE
2
VIEW
5
6
100
AcDbSymbolTable
70
0
0
ENDTAB
0
TABLE
2
UCS
5
7
100
AcDbSymbolTable
70
0
0
ENDTAB
0
TABLE
2
APPID
5
9
100
AcDbSymbolTable
70
2
0
APPID
5
12
100
AcDbSymbolTableRecord
100
AcDbRegAppTableRecord
2
ACAD
70
0
0
ENDTAB
0
TABLE
2
DIMSTYLE
5
A
100
AcDbSymbolTable
70
1
0
ENDTAB
0
TABLE
2
BLOCK_RECORD
5
1
100
AcDbSymbolTable
70
1
0
BLOCK_RECORD
5
1F
100
AcDbSymbolTableRecord
100
AcDbBlockTableRecord
2
*MODEL_SPACE
0
BLOCK_RECORD
5
1B
100
AcDbSymbolTableRecord
100
AcDbBlockTableRecord
2
*PAPER_SPACE
0
ENDTAB
0
ENDSEC
0
SECTION
2
BLOCKS
0
BLOCK
5
20
100
AcDbEntity
100
AcDbBlockBegin
2
*MODEL_SPACE
0
ENDBLK
5
21
100
AcDbEntity
100
AcDbBlockEnd
0
BLOCK
5
1C
100
AcDbEntity
100
AcDbBlockBegin
2
*PAPER_SPACE
0
ENDBLK
5
1D
100
AcDbEntity
100
AcDbBlockEnd
0
ENDSEC
0
SECTION
2
ENTITIES
0
SPLINE
5
100
100
AcDbEntity
8
0
100
AcDbSpline
70
0
71
3
72
10
73
6
74
0
42
0.000000001
43
0.0000000001
44
0.0000000001
40
0
40
0
40
0
40
0
40
0.096250205920567336
40
0.096250205920567336
40
0.19250041184113648
40
0.19250041184113648
40
0.19250041184113648
40
0.19250041184113648
10
76.592492749004549
20
58.000000000000114
30
0
10
76.271658729269319
20
58.000000000000114
30
0
10
75.951568200051568
20
57.969119659534272
30
0
10
75.321734269125187
20
57.846453069414295
30
0
10
75.013450424466058
20
57.754951083401032
30
0
10
74.716066368584535
20
57.634546799727559
30
0
0
SPLINE
5
101
100
AcDbEntity
8
0
100
AcDbSpline
70
4
71
5
72
21
73
15
74
0
42
0.000000001
43
0.0000000001
44
0.0000000001
40
0.0026950872269624333
40
0.0026950872269624333
40
0.0026950872269624333
40
0.0026950872269624333
40
0.0026950872269624333
40
0.0026950872269624333
40
0.10000000000000001
40
0.20000000000000001
40
0.30000000000000004
40
0.40000000000000002
40
0.5
40
0.59999999999999998
40
0.69999999999999996
40
0.79999999999999993
40
0.89999999999999991
40
0.97689029434864216
40
0.97689029434864216
40
0.97689029434864216
40
0.97689029434864216
40
0.97689029434864216
40
0.97689029434864216
41
1
41
1
41
1
41
1
41
1
41
1
41
1
41
1
41
1
41
1
41
1
41
1
41
1
41
1
41
1
10
23.884497951224787
20
48.012102922226383
30
0
10
25.141716204327142
20
48.099737468960768
30
0
10
27.670628393867453
20
48.286234831728841
30
0
10
31.419080133504625
20
48.59415541253437
30
0
10
36.300996583486544
20
49.060732570322251
30
0
10
42.183376265765176
20
49.743498701160014
30
0
10
47.842629446717808
20
50.540272583109456
30
0
10
53.220178866520513
20
51.458902948137506
30
0
10
58.292896510677878
20
52.50939427220203
30
0
10
63.056661545706078
20
53.693529102586304
30
0
10
67.321108222602021
20
54.943681371320139
30
0
10
70.497524704280053
20
56.015523473062672
30
0
10
72.73225725720124
20
56.845750461983101
30
0
10
74.120224425339728
20
57.393303461558872
30
0
10
74.716066368584549
20
57.634546799727566
30
0
0
SPLINE
5
102
100
AcDbEntity
8
0
100
AcDbSpline
70
0
71
3
72
10
73
6
74
0
42
0.000000001
43
0.0000000001
44
0.0000000001
40
0
40
0
40
0
40
0
40
0.017398576732236777
40
0.017398576732236777
40
0.034797153464473943
40
0.034797153464473943
40
0.034797153464473943
40
0.034797153464473943
10
23.884497951226244
20
48.012102922226489
30
0
10
23.826643077866152
20
48.008070141449736
30
0
10
23.768722418262112
20
48.005044258323501
30
0
10
23.65280211917171
20
48.001009034907696
30
0
10
23.59481125242344
20
48.000000000000007
30
0
10
23.536815996649317
20
48.000000000000007
30
0
0
LINE
5
103
100
AcDbEntity
8
0
100
AcDbLine
10
23.536815996649317
20
48.000000000000007
30
0
11
9.5000000000000018
21
48.000000000000007
31
0
0
ARC
5
104
100
AcDbEntity
8
0
100
AcDbCircle
10
8.7809165870942891
20
96.879949819797531
30
0
40
48.885238828716382
210
0
220
0
230
1
100
AcDbArc
50
229.14631486906401
51
270.84282968819457
0
LINE
5
105
100
AcDbEntity
8
0
100
AcDbLine
10
-23.19636552587874
20
59.904011643627129
30
0
11
-28.557824039291905
21
64.404540791292291
31
0
0
ARC
5
106
100
AcDbEntity
8
0
100
AcDbCircle
10
-31.772487716194476
20
60.574927567427096
30
0
40
4.9999999999999964
210
0
220
-0
230
1
100
AcDbArc
50
49.989144558255113
51
139.98914455825533
0
LINE
5
107
100
AcDbEntity
8
0
100
AcDbLine
10
-35.602100940059685
20
63.789591244329657
30
0
11
-44.603159235389676
21
53.066674217503717
31
0
0
ARC
5
108
100
AcDbEntity
8
0
100
AcDbCircle
10
-40.773546011524466
20
49.852010540601157
30
0
40
4.9999999999999973
210
0
220
0
230
1
100
AcDbArc
50
139.98914455825533
51
229.98914455825468
0
LINE
5
109
100
AcDbEntity
8
0
100
AcDbLine
10
-43.988209688427069
20
46.022397316735983
30
0
11
-38.626751175015819
21
41.521868169072334
31
0
0
ARC
5
110
100
AcDbEntity
8
0
100
AcDbCircle
10
8.7809165870942891
20
96.879949819797531
30
0
40
72.883497217758219
210
0
220
0
230
1
100
AcDbArc
50
229.42384356762787
51
234.90225092913738
0
ARC
5
111
100
AcDbEntity
8
0
100
AcDbCircle
10
-35.999999999999929
20
33.157829261169944
30
0
40
5.0000000000000355
210
0
220
-0
230
1
100
AcDbArc
50
0
51
54.9022509291378
0
LINE
5
112
100
AcDbEntity
8
0
100
AcDbLine
10
-30.99999999999989
20
33.157829261170178
30
0
11
-30.999999999997549
21
-19.362024995563274
31
0
0
SPLINE
5
113
100
AcDbEntity
8
0
100
AcDbSpline
70
0
71
3
72
12
73
8
74
0
42
0.000000001
43
0.0000000001
44
0.0000000001
40
0
40
0
40
0
40
0
40
0.19532223669346369
40
0.19532223669346369
40
0.36510389984284225
40
0.36510389984284225
40
0.53488556299222223
40
0.53488556299222223
40
0.53488556299222223
40
0.53488556299222223
10
-30.999999999997549
20
-19.362024995563281
30
0
10
-30.99999999999752
20
-20.013099117874823
30
0
10
-30.872830746174365
20
-20.657948616714251
30
0
10
-30.410791310176531
20
-21.783843905129974
30
0
10
-30.108591490344288
20
-22.267151976976557
30
0
10
-29.355318097113702
20
-23.11197529921392
30
0
10
-28.909682768564608
20
-23.467391361551634
30
0
10
-28.414077593540696
20
-23.740635434087242
30
0
0
SPLINE
5
114
100
AcDbEntity
8
0
100
AcDbSpline
70
4
71
5
72
16
73
10
74
0
42
0.000000001
43
0.0000000001
44
0.0000000001
40
0
40
0
40
0
40
0
40
0
40
0
40
0.20000000000000001
40
0.40000000000000002
40
0.60000000000000009
40
0.80000000000000004
40
0.9571706302628199
40
0.9571706302628199
40
0.9571706302628199
40
0.9571706302628199
40
0.9571706302628199
40
0.9571706302628199
41
1
41
1
41
1
41
1
41
1
41
1
41
1
41
1
41
1
41
1
10
37.97053409050578
20
-43.500000000000014
30
0
10
34.576090529958336
20
-43.578354688976013
30
0
10
27.972714791445291
20
-43.464653463416532
30
0
10
18.623684680450527
20
-42.483599588260432
30
0
10
7.116970428602948
20
-39.778138456024323
30
0
10
-5.6323914415311291
20
-35.057267208632993
30
0
10
-15.250224731659362
20
-30.641279203923641
30
0
10
-22.151647732375807
20
-27.135271476518859
30
0
10
-26.509256400349823
20
-24.790828463759475
30
0
10
-28.4140775935407
20
-23.740635434087235
30
0
0
SPLINE
5
115
100
AcDbEntity
8
0
100
AcDbSpline
70
4
71
5
72
16
73
10
74
0
42
0.000000001
43
0.0000000001
44
0.0000000001
40
-0.95453242079807499
40
-0.95453242079807499
40
-0.95453242079807499
40
-0.95453242079807499
40
-0.95453242079807499
40
-0.95453242079807499
40
-0.80000000000000004
40
-0.60000000000000009
40
-0.40000000000000002
40
-0.20000000000000001
40
0
40
0
40
0
40
0
40
0
40
0
41
1
41
1
41
1
41
1
41
1
41
1
41
1
41
1
41
1
41
1
10
104.77944249868229
20
-22.515064061255519
30
0
10
103.25303691067901
20
-23.535821119485007
30
0
10
99.684700000009428
20
-25.842072251257257
30
0
10
93.861871396138838
20
-29.319891743470112
30
0
10
85.37972013019197
20
-33.752302853474511
30
0
10
73.266923732913398
20
-38.618707105256071
30
0
10
61.112758974285825
20
-41.624076476972434
30
0
10
50.305069669651139
20
-42.971209172329466
30
0
10
42.227572092654064
20
-43.401733853379049
30
0
10
37.97053409050578
20
-43.500000000000014
30
0
0
SPLINE
5
116
100
AcDbEntity
8
0
100
AcDbSpline
70
0
71
3
72
12
73
8
74
0
42
0.000000001
43
0.0000000001
44
0.0000000001
40
0
40
0
40
0
40
0
40
0.19532223669346149
40
0.19532223669346149
40
0.34357842373385994
40
0.34357842373385994
40
0.49183461077425916
40
0.49183461077425916
40
0.49183461077425916
40
0.49183461077425916
10
104.7794424986823
20
-22.515064061255501
30
0
10
105.32065233257592
20
-22.153139444186458
30
0
10
105.78599597975503
20
-21.688964708444153
30
0
10
106.4250259930605
20
-20.73856250677737
30
0
10
106.63845353616875
20
-20.289833818257051
30
0
10
106.92673367668043
20
-19.344435028587242
30
0
10
106.99999999999962
20
-18.852967025635195
30
0
10
106.99999999999962
20
-18.35877973550053
30
0
0
LINE
5
117
100
AcDbEntity
8
0
100
AcDbLine
10
106.99999999999962
20
-18.35877973550053
30
0
11
106.99999999999983
21
53.00000000000005
31
0
0
ARC
5
118
100
AcDbEntity
8
0
100
AcDbCircle
10
101.99999999999983
20
53.000000000000071
30
0
40
5
210
-0
220
0
230
1
100
AcDbArc
50
0
51
90
0
LINE
5
119
100
AcDbEntity
8
0
100
AcDbLine
10
101.99999999999983
20
58.000000000000071
30
0
11
76.592492749004549
21
58.000000000000114
31
0
0
LWPOLYLINE
5
120
100
AcDbEntity
8
0
100
AcDbPolyline
90
4
70
1
43
0.0
10
69.000000000000199
20
15.499999999999998
10
69.000000000000227
20
29.500000000000007
10
82.999999999999758
20
29.499999999999925
10
82.999999999999773
20
15.500000000000005
0
LWPOLYLINE
5
121
100
AcDbEntity
8
0
100
AcDbPolyline
90
4
70
1
43
0.0
10
-7.0000000000000018
20
10.999999999999998
10
-7.0000000000000018
20
25
10
7.0000000000000018
20
25
10
7.0000000000000018
20
10.999999999999998
0
LWPOLYLINE
5
122
100
AcDbEntity
8
0
100
AcDbPolyline
90
4
70
1
43
0.0
10
7.0000000000000018
20
-7.0000000000000018
10
-7.0000000000000018
20
-7.0000000000000018
10
-7.0000000000000018
20
7.0000000000000018
10
7.0000000000000018
20
7.0000000000000018
0
LWPOLYLINE
5
123
100
AcDbEntity
8
0
100
AcDbPolyline
90
4
70
1
43
0.0
10
25.999999999999986
20
2.5
10
26.000000000000007
20
-11.5
10
12.000000000000011
20
-11.499999999999989
10
11.999999999999993
20
2.5000000000000133
0
LWPOLYLINE
5
124
100
AcDbEntity
8
0
100
AcDbPolyline
90
4
70
1
43
0.0
10
12.000000000000011
20
-29.499999999999989
10
11.999999999999993
20
-15.499999999999986
10
25.999999999999986
20
-15.500000000000004
10
26.000000000000007
20
-29.499999999999996
0
LWPOLYLINE
5
125
100
AcDbEntity
8
0
100
AcDbPolyline
90
4
70
1
43
0.0
10
45
20
-2.5000000000000089
10
30.999999999999996
20
-2.5000000000000133
10
31
20
11.499999999999984
10
44.999999999999993
20
11.499999999999925
0
LWPOLYLINE
5
126
100
AcDbEntity
8
0
100
AcDbPolyline
90
4
70
1
43
0.0
10
50.000000000000036
20
-11.499999999999982
10
50
20
2.4999999999999911
10
63.999999999999986
20
2.4999999999999867
10
63.999999999999986
20
-11.499999999999982
0
LWPOLYLINE
5
127
100
AcDbEntity
8
0
100
AcDbPolyline
90
4
70
1
43
0.0
10
88.000000000000242
20
20.000000000000057
10
88.000000000000142
20
34.000000000000064
10
101.99999999999986
20
34.000000000000028
10
101.99999999999983
20
20.000000000000018
0
LWPOLYLINE
5
128
100
AcDbEntity
8
0
100
AcDbPolyline
90
4
70
1
43
0.0
10
63.999999999999986
20
20.499999999999986
10
63.999999999999986
20
6.5000000000000213
10
50.000000000000036
20
6.5000000000000213
10
50
20
20.499999999999989
0
LWPOLYLINE
5
129
100
AcDbEntity
8
0
100
AcDbPolyline
90
4
70
1
43
0.0
10
16.499999999999993
20
28.999999999999979
10
2.5000000000000089
20
28.999999999999986
10
2.5000000000000089
20
43.000000000000007
10
16.500000000000014
20
43.000000000000007
0
LWPOLYLINE
5
130
100
AcDbEntity
8
0
100
AcDbPolyline
90
4
70
1
43
0.0
10
31
20
-6.5000000000000169
10
44.999999999999993
20
-6.5000000000000746
10
45
20
-20.500000000000011
10
30.999999999999996
20
-20.500000000000011
0
LWPOLYLINE
5
131
100
AcDbEntity
8
0
100
AcDbPolyline
90
4
70
1
43
0.0
10
69.000000000000199
20
-2.5
10
69.000000000000227
20
11.500000000000004
10
82.999999999999758
20
11.499999999999929
10
82.999999999999773
20
-2.4999999999999956
0
LWPOLYLINE
5
132
100
AcDbEntity
8
0
100
AcDbPolyline
90
4
70
1
43
0.0
10
45
20
-38.500000000000007
10
30.999999999999996
20
-38.500000000000021
10
31
20
-24.500000000000014
10
44.999999999999993
20
-24.500000000000068
0
LWPOLYLINE
5
133
100
AcDbEntity
8
0
100
AcDbPolyline
90
4
70
1
43
0.0
10
88.000000000000242
20
-15.999999999999947
10
88.000000000000142
20
-1.999999999999944
10
101.99999999999986
20
-1.9999999999999707
10
101.99999999999983
20
-15.999999999999982
0
LWPOLYLINE
5
134
100
AcDbEntity
8
0
100
AcDbPolyline
90
4
70
1
43
0.0
10
63.999999999999986
20
-29.499999999999979
10
50.000000000000036
20
-29.499999999999979
10
50
20
-15.500000000000011
10
63.999999999999986
20
-15.500000000000011
0
LWPOLYLINE
5
135
100
AcDbEntity
8
0
100
AcDbPolyline
90
4
70
1
43
0.0
10
-30.050628984701994
20
40.850952245273852
10
-40.773546011524466
20
49.852010540601157
10
-31.772487716194476
20
60.574927567427096
10
-21.04957068937474
20
51.573869272102108
0
LWPOLYLINE
5
136
100
AcDbEntity
8
0
100
AcDbPolyline
90
4
70
1
43
0.0
10
12.000000000000011
20
6.5000000000000124
10
11.999999999999993
20
20.500000000000014
10
25.999999999999986
20
20.500000000000004
10
26.000000000000007
20
6.4999999999999991
0
LWPOLYLINE
5
137
100
AcDbEntity
8
0
100
AcDbPolyline
90
4
70
1
43
0.0
10
82.999999999999773
20
-20.499999999999993
10
69.000000000000199
20
-20.500000000000004
10
69.000000000000227
20
-6.4999999999999947
10
82.999999999999758
20
-6.5000000000000702
0
LWPOLYLINE
5
138
100
AcDbEntity
8
0
100
AcDbPolyline
90
4
70
1
43
0.0
10
101.99999999999986
20
16.000000000000032
10
101.99999999999983
20
2.0000000000000151
10
88.000000000000242
20
2.0000000000000551
10
88.000000000000142
20
16.000000000000057
0
LWPOLYLINE
5
139
100
AcDbEntity
8
0
100
AcDbPolyline
90
4
70
1
43
0.0
10
-7.0000000000000018
20
-25.000000000000004
10
-7.0000000000000018
20
-11
10
7.0000000000000018
20
-11
10
7.0000000000000018
20
-25.000000000000004
0
LWPOLYLINE
5
140
100
AcDbEntity
8
0
100
AcDbPolyline
90
4
70
1
43
0.0
10
101.99999999999983
20
38.000000000000021
10
88.000000000000242
20
38.000000000000057
10
88.000000000000142
20
52.000000000000064
10
101.99999999999986
20
52.000000000000028
0
LWPOLYLINE
5
141
100
AcDbEntity
8
0
100
AcDbPolyline
90
4
70
1
43
0.0
10
82.999999999999773
20
33.500000000000007
10
69.000000000000199
20
33.5
10
69.000000000000227
20
47.500000000000007
10
82.999999999999758
20
47.499999999999929
0
LWPOLYLINE
5
142
100
AcDbEntity
8
0
100
AcDbPolyline
90
4
70
1
43
0.0
10
63.999999999999986
20
24.500000000000025
10
50.000000000000036
20
24.500000000000025
10
50
20
38.499999999999993
10
63.999999999999986
20
38.499999999999986
0
LWPOLYLINE
5
143
100
AcDbEntity
8
0
100
AcDbPolyline
90
4
70
1
43
0.0
10
30.999999999999996
20
15.499999999999988
10
31
20
29.499999999999986
10
44.999999999999993
20
29.499999999999929
10
45
20
15.499999999999993
0
LWPOLYLINE
5
144
100
AcDbEntity
8
0
100
AcDbPolyline
90
4
70
1
43
0.0
10
-12.000000000000002
20
-18.000000000000004
10
-26.000000000000007
20
-18.000000000000004
10
-26.000000000000007
20
-4.0000000000000036
10
-12.000000000000002
20
-4.000000000000008
0
LWPOLYLINE
5
145
100
AcDbEntity
8
0
100
AcDbPolyline
90
4
70
1
43
0.0
10
-7.8162926577801883
20
30.81996842574064
10
-20.97198934878233
20
35.608250432302114
10
-16.183707342219449
20
48.763947123303552
10
-3.0280106512171212
20
43.975665116743137
0
LINE
5
146
100
AcDbEntity
8
0
100
AcDbLine
10
7.0000000000000018
20
0
30
0
11
-7.0000000000000018
21
0
31
0
0
LINE
5
147
100
AcDbEntity
8
0
100
AcDbLine
10
0
20
-7.0000000000000018
30
0
11
0
21
7.0000000000000018
31
0
0
ENDSEC
0
SECTION
2
OBJECTS
0
DICTIONARY
5
C
100
AcDbDictionary
3
ACAD_GROUP
350
D
3
ACAD_MLINESTYLE
350
17
0
DICTIONARY
5
D
100
AcDbDictionary
0
DICTIONARY
5
1A
330
C
100
AcDbDictionary
0
DICTIONARY
5
17
100
AcDbDictionary
0
ENDSEC
0
EOF
